<?xml version="1.0" standalone="no"?><!DOCTYPE svg PUBLIC "-//W3C//DTD SVG 1.1//EN" "http://www.w3.org/Graphics/SVG/1.1/DTD/svg11.dtd"><svg t="1767842405366" class="icon" viewBox="0 0 1024 1024" version="1.1" xmlns="http://www.w3.org/2000/svg" p-id="4754" xmlns:xlink="http://www.w3.org/1999/xlink" width="200" height="200"><path d="M495.97 741.95h57.67V471.7h0.06v-72H422.4v72h59.24v270.25h14.33zM508.5 182.5v-86L349.06 217.31l159.44 120.9v-89c173.67 0 315 136.32 315 303.91S682.17 857 508.5 857s-315-136.33-315-303.91a296.48 296.48 0 0 1 2.41-37.63l-6.42-4h-62.68a359.83 359.83 0 0 0-2.41 41.61c0 204.34 172.31 370.62 384.1 370.62s384.1-166.22 384.1-370.56S720.28 182.5 508.5 182.5z" fill="#ff92b5" p-id="4755"></path></svg>