<?xml version="1.0" standalone="no"?><!DOCTYPE svg PUBLIC "-//W3C//DTD SVG 1.1//EN" "http://www.w3.org/Graphics/SVG/1.1/DTD/svg11.dtd"><svg t="1767840836348" class="icon" viewBox="0 0 1024 1024" version="1.1" xmlns="http://www.w3.org/2000/svg" p-id="1743" xmlns:xlink="http://www.w3.org/1999/xlink" width="200" height="200"><path d="M511.39 887.51a376.9 376.9 0 1 1 147.15-29.72 375.7 375.7 0 0 1-147.15 29.72z m0-691a313 313 0 1 0 221.33 91.68 311 311 0 0 0-221.33-91.69z" p-id="1744" fill="#ff92b5"></path><path d="M657.62 542H365.15a32.5 32.5 0 0 1 0-65h292.47a32.5 32.5 0 1 1 0 65z" p-id="1745" fill="#ff92b5"></path><path d="M511.39 688.24a32.5 32.5 0 0 1-32.5-32.5V363.27a32.5 32.5 0 0 1 65 0v292.47a32.5 32.5 0 0 1-32.5 32.5z" p-id="1746" fill="#ff92b5"></path></svg>