<?xml version="1.0" standalone="no"?><!DOCTYPE svg PUBLIC "-//W3C//DTD SVG 1.1//EN" "http://www.w3.org/Graphics/SVG/1.1/DTD/svg11.dtd"><svg t="1768874474860" class="icon" viewBox="0 0 1024 1024" version="1.1" xmlns="http://www.w3.org/2000/svg" p-id="2132" xmlns:xlink="http://www.w3.org/1999/xlink" width="16" height="16"><path d="M528.2 136.12V97.4a16.28 16.28 0 0 0-32.56 0v38.72c-189.84 7.94-380.53 154-380.53 393.94a16.28 16.28 0 1 0 32.56 0c0-44.19 59.56-59.87 110.57-59.87 60.93 0 110.51 34.13 110.56 76.09v0.06a16.28 16.28 0 0 0 16.28 16.28 16.28 16.28 0 0 0 16.28-16.28v-0.06c0-42 49.63-76.09 110.57-76.09s110.56 34.16 110.56 76.15a16.28 16.28 0 0 0 16.28 16.28 16.28 16.28 0 0 0 16.28-16.28c0-42 49.6-76.15 110.57-76.15 51 0 110.56 15.68 110.56 59.87a16.28 16.28 0 0 0 16.28 16.28 16.28 16.28 0 0 0 16.28-16.28C908.75 290.09 718 144 528.2 136.12z m237.42 301.51c-55.1 0-102.94 23.8-126.85 58.55-23.91-34.74-71.75-58.55-126.85-58.55S409 461.43 385.08 496.16c-23.92-34.74-71.75-58.53-126.84-58.53-43.87 0-79.87 9.26-104.81 25.62 32.33-186 197.84-295 358.51-295s326.17 109 358.51 295c-24.95-16.36-60.95-25.62-104.83-25.62z" fill="#ff92b5" p-id="2133"></path><path d="M511.92 487.56a16.28 16.28 0 0 0-16.28 16.28V862a48.84 48.84 0 0 1-97.64 0 16.28 16.28 0 1 0-32.56 0 81.4 81.4 0 0 0 162.8 0V503.84a16.28 16.28 0 0 0-16.32-16.28zM651.86 237.33a16.28 16.28 0 1 0-19.41 26.14L730.13 336a16.28 16.28 0 1 0 19.41-26.14z" fill="#ff92b5" p-id="2134"></path></svg>