<?xml version="1.0" standalone="no"?><!DOCTYPE svg PUBLIC "-//W3C//DTD SVG 1.1//EN" "http://www.w3.org/Graphics/SVG/1.1/DTD/svg11.dtd"><svg t="1767852537591" class="icon" viewBox="0 0 1024 1024" version="1.1" xmlns="http://www.w3.org/2000/svg" p-id="11265" xmlns:xlink="http://www.w3.org/1999/xlink" width="200" height="200"><path d="M536.106667 273.002667h-48.106667a8.021333 8.021333 0 0 0-8 8v275.306666c0 2.581333 1.194667 4.992 3.306667 6.485334l165.290666 120.704c3.605333 2.602667 8.597333 1.92 11.2-1.706667l28.586667-38.997333a7.893333 7.893333 0 0 0-1.685333-11.2l-142.592-103.104V281.002667a8.021333 8.021333 0 0 0-8-8z m219.797333 75.2l156.8 38.293333a8.021333 8.021333 0 0 0 9.898667-7.68l0.789333-161.514667a7.957333 7.957333 0 0 0-12.885333-6.293333l-157.610667 123.093333a8 8 0 0 0 2.986667 14.08z m167.68 301.098666l-56.682667-19.498666a8 8 0 0 0-10.112 4.8 351.36 351.36 0 0 1-81.92 127.594666 352.192 352.192 0 0 1-250.197333 103.68c-47.786667 0.021333-94.08-9.28-137.664-27.776a352.981333 352.981333 0 0 1-112.512-75.904 354.645333 354.645333 0 0 1-75.904-112.490666A353.429333 353.429333 0 0 1 171.008 512c0-47.786667 9.301333-94.208 27.797333-137.813333a351.36 351.36 0 0 1 75.904-112.490667A352.981333 352.981333 0 0 1 387.2 185.813333a349.205333 349.205333 0 0 1 137.6-27.797333c47.786667 0 94.08 9.301333 137.706667 27.797333a352.981333 352.981333 0 0 1 112.490666 75.904c10.197333 10.304 19.797333 21.013333 28.586667 32.298667l59.818667-46.805333C784.682667 146.624 662.186667 81.92 524.586667 82.026667 284.992 82.090667 92.586667 276.693333 94.997333 516.394667c2.410667 235.52 193.92 425.6 429.802667 425.6 185.493333 0 343.509333-117.589333 403.690667-282.304a8.170667 8.170667 0 0 0-4.906667-10.389334z" fill="#ff92b5" p-id="11266"></path></svg>