<?xml version="1.0" standalone="no"?><!DOCTYPE svg PUBLIC "-//W3C//DTD SVG 1.1//EN" "http://www.w3.org/Graphics/SVG/1.1/DTD/svg11.dtd"><svg t="1767843070342" class="icon" viewBox="0 0 1024 1024" version="1.1" xmlns="http://www.w3.org/2000/svg" p-id="2172" xmlns:xlink="http://www.w3.org/1999/xlink" width="200" height="200"><path d="M775.17 867.35H253.33c-86.57 0-157-70.43-157-157V375c0-86.58 70.44-157 157-157h521.84c86.57 0 157 70.43 157 157v335.34c0.01 86.58-70.43 157.01-157 157.01zM253.33 283a92.11 92.11 0 0 0-92 92v335.34a92.11 92.11 0 0 0 92 92h521.84a92.11 92.11 0 0 0 92-92V375a92.11 92.11 0 0 0-92-92z" p-id="2173" fill="#ff92b5"></path><path d="M322.92 362.53a32.5 32.5 0 0 1-32.5-32.5V170a32.5 32.5 0 0 1 65 0v160a32.5 32.5 0 0 1-32.5 32.53zM694.92 362.53a32.5 32.5 0 0 1-32.5-32.5V170a32.5 32.5 0 0 1 65 0v160a32.5 32.5 0 0 1-32.5 32.53zM354.41 605.83H266a32.5 32.5 0 0 1 0-65h88.41a32.5 32.5 0 0 1 0 65zM889.5 475h-760a32.5 32.5 0 0 1 0-65h760a32.5 32.5 0 0 1 0 65zM354.41 733.83H266a32.5 32.5 0 0 1 0-65h88.41a32.5 32.5 0 0 1 0 65zM561.41 605.83H473a32.5 32.5 0 1 1 0-65h88.41a32.5 32.5 0 0 1 0 65zM561.41 733.83H473a32.5 32.5 0 1 1 0-65h88.41a32.5 32.5 0 0 1 0 65zM766.41 605.83H678a32.5 32.5 0 0 1 0-65h88.41a32.5 32.5 0 0 1 0 65zM766.41 733.83H678a32.5 32.5 0 0 1 0-65h88.41a32.5 32.5 0 0 1 0 65z" p-id="2174" fill="#ff92b5"></path></svg>