<?xml version="1.0" standalone="no"?><!DOCTYPE svg PUBLIC "-//W3C//DTD SVG 1.1//EN" "http://www.w3.org/Graphics/SVG/1.1/DTD/svg11.dtd"><svg t="1767842238072" class="icon" viewBox="0 0 1024 1024" version="1.1" xmlns="http://www.w3.org/2000/svg" p-id="3714" xmlns:xlink="http://www.w3.org/1999/xlink" width="200" height="200"><path d="M238.933333 145.066667a25.6 25.6 0 0 1 0-51.2h546.133334a25.6 25.6 0 1 1 0 51.2H238.933333z m110.933334 460.8H204.8a25.6 25.6 0 0 1-19.012267-42.734934l307.2-341.333333a25.6 25.6 0 0 1 38.024534 0l307.2 341.333333A25.6 25.6 0 0 1 819.2 605.866667h-145.066667V921.6a25.6 25.6 0 0 1-25.6 25.6h-273.066666a25.6 25.6 0 0 1-25.6-25.6v-315.733333zM512 277.1968L262.280533 554.666667H375.466667a25.6 25.6 0 0 1 25.6 25.6v315.733333h221.866666V580.266667a25.6 25.6 0 0 1 25.6-25.6h113.186134L512 277.1968z" fill="#ff92b5" p-id="3715"></path></svg>