<?xml version="1.0" standalone="no"?><!DOCTYPE svg PUBLIC "-//W3C//DTD SVG 1.1//EN" "http://www.w3.org/Graphics/SVG/1.1/DTD/svg11.dtd"><svg t="1768458678834" class="icon" viewBox="0 0 1024 1024" version="1.1" xmlns="http://www.w3.org/2000/svg" p-id="25634" xmlns:xlink="http://www.w3.org/1999/xlink" width="16" height="16"><path d="M512 64a446.976 446.976 0 0 1 337.066667 152.874667 42.666667 42.666667 0 0 1 16.469333 65.514666l-2.410667 2.773334-320 341.333333a42.666667 42.666667 0 0 1-56.362666 5.248l-2.794667-2.261333-170.666667-148.842667a42.666667 42.666667 0 0 1 53.205334-66.602667l2.88 2.304 139.626666 121.770667 262.272-279.701333A361.514667 361.514667 0 0 0 512 149.333333C311.701333 149.333333 149.333333 311.701333 149.333333 512s162.368 362.666667 362.666667 362.666667 362.666667-162.368 362.666667-362.666667a42.666667 42.666667 0 1 1 85.333333 0c0 247.424-200.576 448-448 448S64 759.424 64 512 264.576 64 512 64z" fill="#ff92b5" p-id="25635"></path></svg>