<?xml version="1.0" standalone="no"?><!DOCTYPE svg PUBLIC "-//W3C//DTD SVG 1.1//EN" "http://www.w3.org/Graphics/SVG/1.1/DTD/svg11.dtd"><svg t="1767842604334" class="icon" viewBox="0 0 1024 1024" version="1.1" xmlns="http://www.w3.org/2000/svg" p-id="1958" xmlns:xlink="http://www.w3.org/1999/xlink" width="200" height="200"><path d="M400.77 401.77m-68.06 0a68.06 68.06 0 1 0 136.12 0 68.06 68.06 0 1 0-136.12 0Z" p-id="1959" fill="#ff92b5"></path><path d="M539.1 882.64a113.48 113.48 0 0 1-80.5-33.29L180 570.75A114.23 114.23 0 0 1 148 473l27.5-179.36a138.73 138.73 0 0 1 115.27-116l180.35-28.79a114.18 114.18 0 0 1 98.44 31.92L848.35 459.6a113.84 113.84 0 0 1 0 161L619.61 849.35a113.47 113.47 0 0 1-80.51 33.29zM489 212.47a48.2 48.2 0 0 0-7.65 0.61L301 241.87a73.49 73.49 0 0 0-61.27 61.63l-27.51 179.33a49 49 0 0 0 13.74 42l278.6 278.6a48.91 48.91 0 0 0 69.09 0l228.74-228.78a48.85 48.85 0 0 0 0-69.09L523.6 226.78a49 49 0 0 0-34.6-14.31z" p-id="1960" fill="#ff92b5"></path></svg>