<?xml version="1.0" standalone="no"?><!DOCTYPE svg PUBLIC "-//W3C//DTD SVG 1.1//EN" "http://www.w3.org/Graphics/SVG/1.1/DTD/svg11.dtd"><svg t="1767843195339" class="icon" viewBox="0 0 1024 1024" version="1.1" xmlns="http://www.w3.org/2000/svg" p-id="2386" xmlns:xlink="http://www.w3.org/1999/xlink" width="200" height="200"><path d="M635.54 484.4c-10.88 0-18.37-0.43-20.9-0.6-19.43-0.64-37.33-7.95-50.48-20.63-13.75-13.27-21.75-31.93-22.54-52.56a459.14 459.14 0 0 1 5-80.42c9.25-61.41 29.42-108 59.93-138.53a157 157 0 0 1 113.2-46.15A162.67 162.67 0 0 1 880.6 306.28a158.79 158.79 0 0 1-46.16 113.27c-32 32-79.28 52.5-140.48 60.91a436.22 436.22 0 0 1-58.42 3.94z m-16.85-65.47a356.3 356.3 0 0 0 67.69-3c31.76-4.49 75.26-15.47 102.1-42.31a93.42 93.42 0 0 0 27.12-66.64 97.69 97.69 0 0 0-96.4-96.44 92.45 92.45 0 0 0-66.68 27.12c-41.9 41.89-47.38 137.1-46 170.25a1.93 1.93 0 0 1 0 0.24c0.28 7.56 3.2 10.57 10.42 10.73 0.57 0 1.13 0 1.7 0.09zM394.07 484.4a436.22 436.22 0 0 1-58.42-3.94c-61.2-8.41-108.47-28.9-140.48-60.91A158.79 158.79 0 0 1 149 306.28a162.67 162.67 0 0 1 160.86-160.77 156.81 156.81 0 0 1 113.19 46.15c30.52 30.51 50.68 77.12 59.94 138.53a460.47 460.47 0 0 1 5 80.43c-0.79 20.62-8.79 39.28-22.54 52.55-13.15 12.68-31.05 20-50.48 20.63-2.54 0.2-9.97 0.6-20.9 0.6z m-82.85-273.9h-0.81a96.53 96.53 0 0 0-67.79 28.6l-0.05 0.05A96.49 96.49 0 0 0 214 306.94a93.38 93.38 0 0 0 27.12 66.64c26.83 26.84 70.33 37.82 102.1 42.31a356.3 356.3 0 0 0 67.69 3c0.55 0 1.15-0.07 1.7-0.09 7.22-0.16 10.14-3.17 10.41-10.73v-0.28c1.42-33.11-4.06-128.32-46-170.21a92.38 92.38 0 0 0-65.8-27.08z m-91.59 5.62zM718.37 876.43a156.91 156.91 0 0 1-111.82-46.16c-30.51-30.52-50.68-77.12-59.93-138.53a459.14 459.14 0 0 1-5-80.42c0.79-20.63 8.79-39.29 22.54-52.56 13.15-12.68 31.05-20 50.48-20.63a419.14 419.14 0 0 1 79.36 3.34c61.2 8.4 108.47 28.9 140.48 60.91a158.79 158.79 0 0 1 46.12 113.27 162.67 162.67 0 0 1-160.85 160.77z m-82.84-273.89c-10.36 0-16.7 0.45-16.84 0.46-0.55 0-1.15 0.07-1.7 0.08-7.22 0.17-10.14 3.18-10.42 10.74a2.72 2.72 0 0 1 0 0.28c-1.42 33.11 4.06 128.32 46 170.21a92.38 92.38 0 0 0 65.87 27.12h0.81A97.69 97.69 0 0 0 815.6 715a93.43 93.43 0 0 0-27.12-66.65c-26.84-26.83-70.34-37.81-102.1-42.3a370 370 0 0 0-50.85-3.51z m-19.29-31.95zM311.24 876.43h-1.38A162.67 162.67 0 0 1 149 715.65a158.79 158.79 0 0 1 46.16-113.27c32-32 79.28-52.51 140.48-60.91a419.14 419.14 0 0 1 79.36-3.34c19.43 0.64 37.33 8 50.48 20.63C479.2 572 487.2 590.69 488 611.31a460.47 460.47 0 0 1-5 80.43c-9.26 61.41-29.42 108-59.94 138.53a156.89 156.89 0 0 1-111.82 46.16z m82.84-273.89a370 370 0 0 0-50.85 3.5c-31.77 4.49-75.27 15.47-102.1 42.3A93.39 93.39 0 0 0 214 715a97.69 97.69 0 0 0 96.4 96.44 92.42 92.42 0 0 0 66.68-27.12c41.9-41.89 47.38-137.1 46-170.25a1.93 1.93 0 0 0 0-0.24c-0.27-7.56-3.19-10.57-10.41-10.74-0.57 0-1.13 0-1.7-0.08-0.19-0.01-6.54-0.47-16.89-0.47z" p-id="2387" fill="#ff92b5"></path></svg>