<?xml version="1.0" standalone="no"?><!DOCTYPE svg PUBLIC "-//W3C//DTD SVG 1.1//EN" "http://www.w3.org/Graphics/SVG/1.1/DTD/svg11.dtd"><svg t="1768458502841" class="icon" viewBox="0 0 1024 1024" version="1.1" xmlns="http://www.w3.org/2000/svg" p-id="19041" xmlns:xlink="http://www.w3.org/1999/xlink" width="16" height="16"><path d="M511.707596 0.584809C229.829812 0.584809 0 229.245003 0 512.292404c0 282.462593 229.245003 511.707596 511.707596 511.707596S1023.415191 794.754997 1023.415191 512.292404C1023.415191 229.245003 795.339806 0.584809 511.707596 0.584809z m0 953.238149c-243.280411 0-441.530554-198.250143-441.530554-441.530554s198.250143-441.530554 441.530554-441.530554S953.23815 268.427184 953.23815 512.292404s-197.665334 441.530554-441.530554 441.530554z m249.128498-645.628783L561.416334 511.707596l200.004568 203.513421c13.4506 14.035408 13.4506 36.258138-0.584808 49.708737-7.017704 6.432895-15.789834 9.941748-24.561965 9.941748-9.356939 0-18.129069-3.508852-25.146773-10.526556L512.292404 561.416334l-198.834951 202.928612c-7.017704 7.017704-15.789834 10.526556-25.146773 10.526556-8.77213 0-17.54426-3.508852-24.561965-9.941748-14.035408-13.4506-14.035408-35.67333-0.584809-49.708737l200.004569-203.513421L263.163906 308.194175c-13.4506-14.035408-13.4506-36.258138 0.584809-49.708738s36.258138-13.4506 49.708738 0.584809l198.834951 202.928612 198.834952-202.928612c13.4506-14.035408 35.67333-14.035408 49.708738-0.584809 13.4506 13.4506 13.4506 35.67333 0 49.708738z" fill="#ff92b5" p-id="19042"></path></svg>