<?xml version="1.0" standalone="no"?><!DOCTYPE svg PUBLIC "-//W3C//DTD SVG 1.1//EN" "http://www.w3.org/Graphics/SVG/1.1/DTD/svg11.dtd"><svg t="1768458212216" class="icon" viewBox="0 0 1024 1024" version="1.1" xmlns="http://www.w3.org/2000/svg" p-id="13932" xmlns:xlink="http://www.w3.org/1999/xlink" width="16" height="16"><path d="M504.619916 940.788833c-2.572592 0-5.1503-0.323365-7.673773-0.974188-4.638647-1.198292-114.794489-30.529317-217.712487-134.823662-60.245106-61.050448-105.625666-135.270846-134.879943-220.600257-36.129872-105.380072-47.512107-227.901547-33.83255-364.16193 1.149173-11.447726 8.602935-21.291932 19.309788-25.502837L493.385037 51.741431c6.850012-2.693342 14.440897-2.837628 21.3871-0.403183l375.442858 131.552152c10.275018 3.601015 17.875113 12.374842 19.97289 23.060205 1.048889 5.347798 25.292036 132.735094-10.495028 286.901289-21.149693 91.112114-58.973136 172.656315-112.417349 242.368026-66.729797 87.040379-157.804049 155.388023-270.693142 203.143677C512.772596 939.975305 508.702907 940.788833 504.619916 940.788833zM169.902598 244.941642c-9.93835 119.004371 0.751107 225.720881 31.825846 317.467445 25.862018 76.356039 65.903989 142.710282 119.015627 197.219757 74.636884 76.601632 155.050332 108.596324 182.12906 117.777427 97.778954-43.085284 176.754656-103.090936 234.848773-178.468694 48.092321-62.398142 82.294284-135.676076 101.654214-217.798445 26.078958-110.6194 18.019399-208.289883 13.114692-246.407016L505.237993 113.055892 169.902598 244.941642z" fill="#ff92b5" p-id="13933"></path><path d="M720.324676 377.233644 510.497787 582.312392c-5.254677 5.169743-12.138458 7.755638-19.019169 7.755638-6.768147 0-13.57518-2.51017-18.829857-7.53358l-130.038682-124.311237c-10.775414-10.307763-11.081383-27.320229-0.681522-38.004569 10.435677-10.603499 27.564799-10.980076 38.341237-0.671289l110.980627 106.135272 191.031824-186.677657c10.624988-10.454096 27.831882-10.342556 38.306444 0.265036C731.10009 349.839737 730.984457 366.81434 720.324676 377.233644z" fill="#ff92b5" p-id="13934"></path></svg>