<?xml version="1.0" standalone="no"?><!DOCTYPE svg PUBLIC "-//W3C//DTD SVG 1.1//EN" "http://www.w3.org/Graphics/SVG/1.1/DTD/svg11.dtd"><svg t="1768449575368" class="icon" viewBox="0 0 1024 1024" version="1.1" xmlns="http://www.w3.org/2000/svg" p-id="7299" xmlns:xlink="http://www.w3.org/1999/xlink" width="16" height="16"><path d="M800 896h-32V448c0-92.3-48.5-175.2-128-220.9V192c0-70.6-57.4-128-128-128s-128 57.4-128 128v35.1C304.5 272.8 256 355.7 256 448v448h-32c-17.7 0-32 14.3-32 32s14.3 32 32 32h576c17.7 0 32-14.3 32-32s-14.3-32-32-32z m-480 0V448c0-74.2 42.1-140.4 109.8-172.8a31.98 31.98 0 0 0 18.2-28.9V193c0-35.1 27.9-64.4 63-65 35.7-0.6 65 28.4 65 64v54.4c0 12.3 7.1 23.6 18.2 28.9C661.9 307.6 704 373.8 704 448v448H320z" fill="#ff92b5" p-id="7300"></path></svg>