<?xml version="1.0" standalone="no"?><!DOCTYPE svg PUBLIC "-//W3C//DTD SVG 1.1//EN" "http://www.w3.org/Graphics/SVG/1.1/DTD/svg11.dtd"><svg t="1768459268796" class="icon" viewBox="0 0 1024 1024" version="1.1" xmlns="http://www.w3.org/2000/svg" p-id="11960" width="16" height="16" xmlns:xlink="http://www.w3.org/1999/xlink"><path d="M934.968336 89.140545a304.307384 304.307384 0 0 0-430.377587 0L89.211169 504.302762A304.307384 304.307384 0 0 0 519.588756 934.897711L934.968336 519.518131a304.307384 304.307384 0 0 0 0-430.377586zM473.507923 888.382154A239.098659 239.098659 0 0 1 135.292002 550.383595l184.540692-184.540693 338.215922 338.215922z m414.944855-414.944855l-184.540692 184.540692L365.913527 319.76207l184.540692-184.540693a239.098659 239.098659 0 1 1 337.998559 338.215922z" fill="#ff92b5" p-id="11961"></path><path d="M581.10232 166.086841l-69.121249 69.121248a32.604363 32.604363 0 1 0 46.080833 46.080833l69.121248-69.121249A130.41745 130.41745 0 0 1 804.550885 206.298888a32.604363 32.604363 0 0 0 43.472484-48.906544 195.626176 195.626176 0 0 0-266.921049 8.694497z" fill="#ff92b5" p-id="11962"></path></svg>